HIERARCHY
ROOT pelvis
{
	OFFSET 0.000000 0.000000 0.734067
	CHANNELS 6 Xposition Yposition Zposition Xrotation Yrotation Zrotation
	JOINT spine
	{
		OFFSET 0.000000 0.000000 0.000000
		CHANNELS 6 Xposition Yposition Zposition Xrotation Yrotation Zrotation
		JOINT spine.001
		{
			OFFSET 0.000000 -0.014122 0.269463
			CHANNELS 3 Xrotation Yrotation Zrotation
			JOINT neck
			{
				OFFSET 0.000000 0.032884 0.267822
				CHANNELS 6 Xposition Yposition Zposition Xrotation Yrotation Zrotation
				JOINT face
				{
					OFFSET 0.000000 0.003432 0.196637
					CHANNELS 6 Xposition Yposition Zposition Xrotation Yrotation Zrotation
					End Site
					{
						OFFSET 0.000000 -0.029482 -0.007700
					}
				}
			}
			JOINT shoulder.L
			{
				OFFSET 0.000000 0.032884 0.267822
				CHANNELS 6 Xposition Yposition Zposition Yrotation Xrotation Zrotation
				JOINT upper_arm.L
				{
					OFFSET 0.165374 0.000000 0.000000
					CHANNELS 6 Xposition Yposition Zposition Xrotation Yrotation Zrotation
					JOINT forearm.L
					{
						OFFSET 0.288452 0.000115 0.000952
						CHANNELS 6 Xposition Yposition Zposition Xrotation Yrotation Zrotation
						End Site
						{
							OFFSET 0.235490 -0.004005 -0.001312
						}
					}
				}
			}
			JOINT shoulder.R
			{
				OFFSET 0.000000 0.032884 0.267822
				CHANNELS 6 Xposition Yposition Zposition Yrotation Xrotation Zrotation
				JOINT upper_arm.R
				{
					OFFSET -0.165374 0.000000 0.000000
					CHANNELS 6 Xposition Yposition Zposition Xrotation Yrotation Zrotation
					JOINT forearm.R
					{
						OFFSET -0.290405 0.000115 0.000952
						CHANNELS 6 Xposition Yposition Zposition Xrotation Yrotation Zrotation
						End Site
						{
							OFFSET -0.236904 -0.004030 -0.001312
						}
					}
				}
			}
		}
	}
	JOINT pelvis.L
	{
		OFFSET 0.000000 0.000000 0.000000
		CHANNELS 6 Xposition Yposition Zposition Yrotation Xrotation Zrotation
		End Site
		{
			OFFSET 0.102176 0.000000 0.000000
		}
	}
	JOINT pelvis.R
	{
		OFFSET 0.000000 0.000000 0.000000
		CHANNELS 6 Xposition Yposition Zposition Yrotation Xrotation Zrotation
		End Site
		{
			OFFSET -0.102176 0.000000 0.000000
		}
	}
	JOINT thigh.L
	{
		OFFSET 0.102176 0.000000 0.000000
		CHANNELS 6 Xposition Yposition Zposition Xrotation Yrotation Zrotation
		JOINT shin.L
		{
			OFFSET 0.018502 0.000000 -0.353038
			CHANNELS 6 Xposition Yposition Zposition Xrotation Yrotation Zrotation
			JOINT foot.L
			{
				OFFSET 0.016053 0.000000 -0.306305
				CHANNELS 3 Xrotation Yrotation Zrotation
				End Site
				{
					OFFSET 0.015128 -0.154245 -0.064770
				}
			}
			JOINT heel.02.L
			{
				OFFSET 0.016053 0.000000 -0.306305
				CHANNELS 3 Xrotation Yrotation Zrotation
				End Site
				{
					OFFSET 0.088444 0.034244 -0.069286
				}
			}
		}
	}
	JOINT thigh.R
	{
		OFFSET -0.102176 0.000000 0.000000
		CHANNELS 6 Xposition Yposition Zposition Xrotation Yrotation Zrotation
		JOINT shin.R
		{
			OFFSET -0.018712 0.000000 -0.357043
			CHANNELS 6 Xposition Yposition Zposition Xrotation Yrotation Zrotation
			JOINT foot.R
			{
				OFFSET -0.016444 0.000000 -0.313773
				CHANNELS 3 Xrotation Yrotation Zrotation
				End Site
				{
					OFFSET -0.016254 -0.165723 -0.069590
				}
			}
			JOINT heel.02.R
			{
				OFFSET -0.016444 0.000000 -0.313773
				CHANNELS 3 Xrotation Yrotation Zrotation
				End Site
				{
					OFFSET -0.080533 0.034244 -0.058195
				}
			}
		}
	}
}
MOTION
Frames: 8
Frame Time: 0.041667
0.015142 0.055338 0.722766 -0.000000 0.000000 3.482906 -0.000000 -0.000000 0.000000 -5.789949 3.889367 0.401735 9.998813 0.130841 1.065845 -0.000000 0.032884 0.267822 13.553631 -2.177994 3.213887 0.000000 0.003432 0.196637 0.000229 0.000000 -0.000001 0.000000 0.032884 0.267822 2.400870 0.006175 -0.294753 0.165374 0.000000 -0.000000 20.278318 72.471073 -27.417918 0.288452 0.000115 0.000952 1.545446 8.340551 -20.537096 -0.000000 0.032884 0.267822 2.452125 0.006441 -0.301033 -0.165374 0.000000 0.000000 43.083303 -81.444419 49.272817 -0.290405 0.000115 0.000952 2.542983 -12.928362 21.216116 0.000000 -0.000000 0.000000 2.783727 0.000000 0.000015 0.000000 -0.000000 0.000000 2.783727 0.000000 0.000000 0.102055 -0.000000 -0.004962 5.169639 9.178055 -0.144719 0.018502 -0.000000 -0.353038 6.118254 2.101545 0.208825 -9.563149 -7.516652 12.349700 -13.956440 48.013402 35.397616 -0.102055 -0.000000 0.004962 6.608375 4.945430 -0.630972 -0.018712 0.000000 -0.357043 6.689460 2.607073 -0.502768 -8.068052 7.481560 -12.981693 -30.665121 -54.170196 -50.460034 
0.015583 0.052866 0.722183 -0.000000 0.000000 4.586280 -0.000000 0.000000 0.000000 -6.132357 4.103649 0.436288 9.999186 0.096879 0.788499 -0.000000 0.032884 0.267822 13.897549 -2.906655 2.225464 -0.000000 0.003432 0.196637 -0.100943 -0.000000 0.000001 -0.000000 0.032884 0.267822 1.879518 0.003786 -0.230798 0.165374 0.000000 -0.000000 21.399519 73.709168 -28.288922 0.288452 0.000115 0.000952 1.531990 8.129854 -20.957764 -0.000000 0.032884 0.267822 1.930814 0.003995 -0.237085 -0.165374 -0.000000 -0.000000 40.449043 -81.325437 46.431250 -0.290405 0.000115 0.000952 2.401409 -12.741581 20.285254 0.000000 -0.000000 -0.000000 3.286157 -0.000001 0.000020 0.000000 -0.000000 -0.000000 3.286158 0.000000 -0.000000 0.102008 -0.000000 -0.005857 6.194463 9.348161 -0.182779 0.018502 -0.000000 -0.353038 4.299649 1.769609 0.159134 -8.610012 -6.983693 11.780989 -13.170130 47.555469 35.349671 -0.102008 -0.000000 0.005857 7.389471 4.626052 -0.685234 -0.018712 -0.000000 -0.357043 5.955913 2.415798 -0.437625 -7.655184 8.305785 -14.767012 -30.854983 -54.262195 -50.806615 
0.016144 0.051090 0.721818 -0.000000 0.000000 5.371377 0.000000 -0.000000 0.000000 -6.368742 4.265850 0.462453 9.999363 0.092381 0.752195 -0.000000 0.032884 0.267822 13.998312 -3.404770 1.546862 0.000000 0.003432 0.196637 -0.089036 0.000000 0.000002 -0.000000 0.032884 0.267822 1.459621 0.002282 -0.179161 0.165374 0.000000 -0.000000 22.680427 74.625568 -29.479325 0.288452 0.000115 0.000952 1.515106 7.971134 -21.189079 -0.000000 0.032884 0.267822 1.510875 0.002446 -0.185479 -0.165374 0.000000 0.000000 38.253875 -81.160235 44.091849 -0.290405 0.000115 0.000952 2.291106 -12.587841 19.552043 0.000000 -0.000000 0.000000 3.597056 -0.000002 0.000050 0.000000 -0.000000 0.000000 3.597024 -0.000000 0.000000 0.101974 -0.000000 -0.006410 6.893065 9.448314 -0.209547 0.018502 -0.000000 -0.353038 3.053600 1.623690 0.116877 -7.964519 -6.641651 11.416168 -12.612983 47.205859 35.258485 -0.101974 -0.000000 0.006410 7.954408 4.406585 -0.722605 -0.018712 0.000000 -0.357043 5.404161 2.272011 -0.390265 -7.397548 8.924434 -16.092013 -31.223820 -54.410551 -51.139047 
0.016898 0.050113 0.721648 -0.000000 0.000000 5.794825 -0.000000 0.000000 0.000000 -6.500173 4.356449 0.477344 9.999054 0.109803 0.893935 0.000000 0.032884 0.267822 13.854316 -3.596001 1.245934 -0.000000 0.003432 0.196637 0.054010 -0.000000 0.000001 0.000000 0.032884 0.267822 1.214901 0.001583 -0.149196 0.165374 0.000000 0.000000 23.732901 75.112068 -30.563884 0.288452 0.000115 0.000952 1.505215 7.899629 -21.262078 0.000000 0.032884 0.267822 1.266239 0.001719 -0.155488 -0.165374 0.000000 -0.000000 36.771737 -80.930037 42.581455 -0.290405 0.000115 0.000952 2.222293 -12.547702 18.986807 0.000000 -0.000000 0.000000 3.707614 0.000002 -0.000052 0.000000 -0.000000 0.000000 3.707647 -0.000000 0.000000 0.101962 0.000000 -0.006607 7.226543 9.535941 -0.225316 0.018502 -0.000000 -0.353038 2.489228 1.552755 0.096807 -7.690338 -6.493960 11.252819 -12.404721 47.054894 35.171533 -0.101962 0.000000 0.006607 8.278026 4.334740 -0.746932 -0.018712 -0.000000 -0.357043 5.063232 2.154206 -0.360426 -7.328772 9.320836 -16.891282 -31.764099 -54.610689 -51.452997 
0.017767 0.049535 0.721512 -0.000000 0.000000 6.002097 0.000000 -0.000000 0.000000 -6.609833 4.414153 0.487949 9.998942 0.119087 0.969596 0.000000 0.032884 0.267822 13.656568 -3.555313 1.196854 0.000000 0.003432 0.196637 0.257116 -0.000000 -0.000003 0.000000 0.032884 0.267822 1.149204 0.001416 -0.141094 0.165374 0.000000 0.000000 23.970549 75.278199 -30.776324 0.288452 0.000115 0.000952 1.516779 7.932755 -21.333140 0.000000 0.032884 0.267822 1.200459 0.001544 -0.147389 -0.165374 0.000000 -0.000000 36.127336 -80.639474 42.048523 -0.290405 0.000115 0.000952 2.187151 -12.689261 18.422270 0.000000 -0.000000 0.000000 3.724865 -0.000002 0.000047 0.000000 -0.000000 0.000000 3.724830 -0.000000 -0.000001 0.101960 -0.000000 -0.006638 7.387068 9.664778 -0.238761 0.018502 -0.000000 -0.353038 2.276687 1.417895 0.091214 -7.605474 -6.437054 11.180008 -12.431422 47.061065 35.145746 -0.101960 -0.000000 0.006638 8.471632 4.363571 -0.766587 -0.018712 0.000000 -0.357043 4.836301 2.046971 -0.339743 -7.338809 9.575951 -17.374693 -32.314031 -54.810813 -51.773189 
0.018580 0.049048 0.721350 -0.000000 0.000000 6.127215 -0.000000 0.000000 0.000000 -6.753564 4.481130 0.501053 9.999061 0.108369 0.882102 0.000000 0.032884 0.267822 13.549856 -3.398864 1.246252 -0.000000 0.003432 0.196637 0.446243 -0.000000 -0.000001 0.000000 0.032884 0.267822 1.192427 0.001524 -0.146439 0.165374 0.000000 0.000000 23.473330 75.304010 -30.137195 0.288452 0.000115 0.000952 1.541009 8.012828 -21.446705 0.000000 0.032884 0.267822 1.243684 0.001658 -0.152723 -0.165374 -0.000000 -0.000000 36.137138 -80.343467 42.259784 -0.290405 0.000115 0.000952 2.169544 -12.958348 17.824676 0.000000 0.000000 0.000000 3.732433 -0.000002 0.000057 0.000000 0.000000 0.000000 3.732466 -0.000000 0.000000 0.101959 -0.000000 -0.006651 7.532476 9.814744 -0.253479 0.018502 -0.000000 -0.353038 2.116932 1.230613 0.088269 -7.551603 -6.397366 11.126692 -12.492322 47.099110 35.153723 -0.101959 -0.000000 0.006651 8.620716 4.427160 -0.784897 -0.018712 -0.000000 -0.357043 4.652801 1.952196 -0.323004 -7.343747 9.749069 -17.703205 -32.767515 -54.976964 -52.094471 
0.019254 0.048737 0.721194 -0.000000 0.000000 6.206844 0.000000 -0.000000 -0.000000 -6.898030 4.556746 0.515337 9.999296 0.094561 0.769764 0.000000 0.032884 0.267821 13.481432 -3.209463 1.382690 0.000000 0.003432 0.196637 0.618118 0.000000 0.000004 0.000000 0.032884 0.267822 1.249765 0.001672 -0.153421 0.165374 0.000000 -0.000000 22.975744 75.315089 -29.504904 0.288452 0.000115 0.000952 1.555427 8.056189 -21.526371 0.000000 0.032884 0.267822 1.301061 0.001813 -0.159729 -0.165374 0.000000 -0.000000 36.291018 -80.105982 42.596697 -0.290405 0.000115 0.000952 2.163573 -13.237268 17.339064 0.000000 0.000000 -0.000000 3.746668 0.000002 -0.000067 0.000000 0.000000 -0.000000 3.746636 -0.000000 0.000000 0.101957 0.000000 -0.006677 7.669119 9.935180 -0.266274 0.018502 -0.000000 -0.353038 1.951299 1.098687 0.083604 -7.492134 -6.371950 11.103551 -12.501650 47.105868 35.157620 -0.101957 0.000000 0.006677 8.721300 4.490796 -0.798915 -0.018712 -0.000000 -0.357043 4.515482 1.885105 -0.310829 -7.350648 9.855969 -17.903567 -33.129057 -55.107602 -52.353479 
0.019829 0.048782 0.721030 -0.000000 0.000000 6.253892 0.000000 0.000000 0.000000 -6.980227 4.617378 0.525558 9.999319 0.095853 0.780575 -0.000000 0.032884 0.267822 13.327991 -3.036253 1.658137 -0.000000 0.003432 0.196637 0.806996 -0.000000 -0.000002 -0.000000 0.032884 0.267822 1.261762 0.001706 -0.154873 0.165374 0.000000 -0.000000 23.045277 75.363993 -29.567817 0.288452 0.000115 0.000952 1.551371 8.036274 -21.528029 -0.000000 0.032884 0.267822 1.313016 0.001847 -0.161194 -0.165374 0.000000 0.000000 36.082342 -79.934537 42.474679 -0.290405 0.000115 0.000952 2.176268 -13.483343 17.082486 0.000000 0.000000 0.000000 3.765727 0.000003 -0.000089 0.000000 0.000000 0.000000 3.765693 -0.000000 -0.000000 0.101955 0.000000 -0.006711 7.759179 10.011816 -0.274681 0.018502 -0.000000 -0.353038 1.803927 1.069938 0.077741 -7.423294 -6.366070 11.122622 -12.530168 47.139012 35.204438 -0.101955 -0.000000 0.006710 8.758678 4.535612 -0.805767 -0.018712 0.000000 -0.357043 4.427356 1.872667 -0.304276 -7.362095 9.908974 -17.998179 -33.436665 -55.213934 -52.518383 
